# xmcd CD database file
#
# Track frame offsets:
#	150
#	36692
#	58860
#	87320
#	113402
#	138317
#	155915
#	171095
#	199432
#	222222
#	249302
#	267807
#	284790
#	308367
#	327535
#	340235
#
# Disc length: 4700 seconds
#
# Revision: 0
# Processed by: cddbd v1.5.2PL0 Copyright (c) Steve Scherf et al.
# Submitted via: CDex 1.70beta2
#
DISCID=f9125a10
DTITLE=Art Tatum - The Tatum-Carter-Bellson Trio and Makin' Whoopee
DYEAR=1900
DGENRE=Jazz
TTITLE0=Blues in C
TTITLE1=Undecided
TTITLE2=Under a blanket of blue
TTITLE3=Blues in B flat
TTITLE4=A foggy day
TTITLE5=Street of dreams
TTITLE6='S wonderful
TTITLE7=Makin' whoopee
TTITLE8=Old fashoined love
TTITLE9=(I'm left with the) Blues in my heart
TTITLE10=My blue heaven
TTITLE11=Hands across the table
TTITLE12=You're mine, you
TTITLE13=Idaho
TTITLE14=Makin' whoopee (1963 solo piano version)
TTITLE15=Makin' whoopee ((1949 solo piano version)
EXTD=
EXTT0=
EXTT1=
EXTT2=
EXTT3=
EXTT4=
EXTT5=
EXTT6=
EXTT7=
EXTT8=
EXTT9=
EXTT10=
EXTT11=
EXTT12=
EXTT13=
EXTT14=
EXTT15=
PLAYORDER=
